<?xml version="1.0" encoding="UTF-8"?> <svg xmlns="http://www.w3.org/2000/svg" viewBox="0 0 750 750"><g><rect style="fill:none" width="750" height="750"></rect><path style="fill:#ffffff" d="m650,600.5l-225.5-225.5,225.5-225.5c13.67-13.67,13.67-35.83,0-49.5h0c-13.67-13.67-35.83-13.67-49.5,0l-225.5,225.5L149.5,100c-13.67-13.67-35.83-13.67-49.5,0h0c-13.67,13.67-13.67,35.83,0,49.5l225.5,225.5-225.5,225.5c-13.67,13.67-13.67,35.83,0,49.5h0c13.67,13.67,35.83,13.67,49.5,0l225.5-225.5,225.5,225.5c13.67,13.67,35.83,13.67,49.5,0h0c13.67-13.67,13.67-35.83,0-49.5Z"></path></g></svg> 